<?xml version="1.0" encoding="utf-8" standalone="no"?>
<!DOCTYPE svg PUBLIC "-//W3C//DTD SVG 1.1//EN"
  "http://www.w3.org/Graphics/SVG/1.1/DTD/svg11.dtd">
<svg xmlns:xlink="http://www.w3.org/1999/xlink" width="720pt" height="187.2pt" viewBox="0 0 720 187.2" xmlns="http://www.w3.org/2000/svg" version="1.1">
 <metadata>
  <rdf:RDF xmlns:dc="http://purl.org/dc/elements/1.1/" xmlns:cc="http://creativecommons.org/ns#" xmlns:rdf="http://www.w3.org/1999/02/22-rdf-syntax-ns#">
   <cc:Work>
    <dc:type rdf:resource="http://purl.org/dc/dcmitype/StillImage"/>
    <dc:date>2025-09-06T21:08:58.013525</dc:date>
    <dc:format>image/svg+xml</dc:format>
    <dc:creator>
     <cc:Agent>
      <dc:title>Matplotlib v3.10.1, https://matplotlib.org/</dc:title>
     </cc:Agent>
    </dc:creator>
   </cc:Work>
  </rdf:RDF>
 </metadata>
 <defs>
  <style type="text/css">*{stroke-linejoin: round; stroke-linecap: butt}</style>
 </defs>
 <g id="figure_1">
  <g id="patch_1">
   <path d="M 0 187.2 
L 720 187.2 
L 720 0 
L 0 0 
z
" style="fill: #ffffff"/>
  </g>
  <g id="axes_1">
   <g id="line2d_1">
    <path d="M 90 150.592 
L 648 150.592 
" clip-path="url(#pb49a5c8c8a)" style="fill: none; stroke: #000000; stroke-width: 1.5; stroke-linecap: square"/>
   </g>
   <g id="line2d_2">
    <path d="M 240.290174 86.528 
L 240.290174 150.592 
" clip-path="url(#pb49a5c8c8a)" style="fill: none; stroke: #000000; stroke-width: 0.5; stroke-linecap: square"/>
   </g>
   <g id="line2d_3">
    <path d="M 347.548362 118.56 
L 347.548362 150.592 
" clip-path="url(#pb49a5c8c8a)" style="fill: none; stroke: #000000; stroke-width: 0.5; stroke-linecap: square"/>
   </g>
   <g id="line2d_4">
    <path d="M 433.354913 86.528 
L 433.354913 150.592 
" clip-path="url(#pb49a5c8c8a)" style="fill: none; stroke: #000000; stroke-width: 0.5; stroke-linecap: square"/>
   </g>
   <g id="line2d_5">
    <path d="M 519.161464 118.56 
L 519.161464 150.592 
" clip-path="url(#pb49a5c8c8a)" style="fill: none; stroke: #000000; stroke-width: 0.5; stroke-linecap: square"/>
   </g>
   <g id="line2d_6">
    <path d="M 154.483623 118.56 
L 154.483623 150.592 
" clip-path="url(#pb49a5c8c8a)" style="fill: none; stroke: #000000; stroke-width: 0.5; stroke-linecap: square"/>
   </g>
   <g id="line2d_7">
    <path d="M 186.66108 54.496 
L 186.66108 150.592 
" clip-path="url(#pb49a5c8c8a)" style="fill: none; stroke: #000000; stroke-width: 0.5; stroke-linecap: square"/>
   </g>
   <g id="line2d_8">
    <path d="M 293.919268 54.496 
L 293.919268 150.592 
" clip-path="url(#pb49a5c8c8a)" style="fill: none; stroke: #000000; stroke-width: 0.5; stroke-linecap: square"/>
   </g>
   <g id="line2d_9">
    <path d="M 572.790558 86.528 
L 572.790558 150.592 
" clip-path="url(#pb49a5c8c8a)" style="fill: none; stroke: #000000; stroke-width: 0.5; stroke-linecap: square"/>
   </g>
   <g id="patch_2">
    <path d="M 197.386898 143.592 
Q 236.091236 143.592 274.795573 143.592 
L 274.795573 143.592 
Q 278.994511 147.092 283.193449 150.592 
Q 278.994511 154.092 274.795573 157.592 
L 274.795573 157.592 
Q 236.091236 157.592 197.386898 157.592 
L 197.386898 143.592 
z
" clip-path="url(#pb49a5c8c8a)" style="fill: #ff4500; stroke: #000000; stroke-linecap: round"/>
   </g>
   <g id="patch_3">
    <path d="M 304.645087 143.592 
Q 343.349424 143.592 382.053761 143.592 
L 382.053761 143.592 
Q 386.2527 147.092 390.451638 150.592 
Q 386.2527 154.092 382.053761 157.592 
L 382.053761 157.592 
Q 343.349424 157.592 304.645087 157.592 
L 304.645087 143.592 
z
" clip-path="url(#pb49a5c8c8a)" style="fill: #ff6347; stroke: #000000; stroke-linecap: round"/>
   </g>
   <g id="patch_4">
    <path d="M 390.451638 143.592 
Q 429.155975 143.592 467.860312 143.592 
L 467.860312 143.592 
Q 472.05925 147.092 476.258189 150.592 
Q 472.05925 154.092 467.860312 157.592 
L 467.860312 157.592 
Q 429.155975 157.592 390.451638 157.592 
L 390.451638 143.592 
z
" clip-path="url(#pb49a5c8c8a)" style="fill: #4682b4; stroke: #000000; stroke-linecap: round"/>
   </g>
   <g id="patch_5">
    <path d="M 476.258189 143.592 
Q 514.962526 143.592 553.666863 143.592 
L 553.666863 143.592 
Q 557.865801 147.092 562.064739 150.592 
Q 557.865801 154.092 553.666863 157.592 
L 553.666863 157.592 
Q 514.962526 157.592 476.258189 157.592 
L 476.258189 143.592 
z
" clip-path="url(#pb49a5c8c8a)" style="fill: #008000; stroke: #000000; stroke-linecap: round"/>
   </g>
   <g id="patch_6">
    <path d="M 90.12871 143.592 
Q 107.381409 143.592 124.634109 143.592 
L 124.634109 143.592 
Q 128.833047 147.092 133.031985 150.592 
Q 128.833047 154.092 124.634109 157.592 
L 124.634109 157.592 
Q 107.381409 157.592 90.12871 157.592 
L 90.12871 143.592 
z
" clip-path="url(#pb49a5c8c8a)" style="fill: #ffd700; stroke: #000000; stroke-linecap: round"/>
   </g>
   <g id="patch_7">
    <path d="M 133.031985 143.592 
Q 150.284685 143.592 167.537384 143.592 
L 167.537384 143.592 
Q 171.736323 147.092 175.935261 150.592 
Q 171.736323 154.092 167.537384 157.592 
L 167.537384 157.592 
Q 150.284685 157.592 133.031985 157.592 
L 133.031985 143.592 
z
" clip-path="url(#pb49a5c8c8a)" style="fill: #32cd32; stroke: #000000; stroke-linecap: round"/>
   </g>
   <g id="patch_8">
    <path d="M 583.516377 143.592 
Q 600.769077 143.592 618.021776 143.592 
L 618.021776 143.592 
Q 622.220714 147.092 626.419652 150.592 
Q 622.220714 154.092 618.021776 157.592 
L 618.021776 157.592 
Q 600.769077 157.592 583.516377 157.592 
L 583.516377 143.592 
z
" clip-path="url(#pb49a5c8c8a)" style="fill: #ffd700; stroke: #000000; stroke-linecap: round"/>
   </g>
   <g id="patch_9">
    <path d="M 175.935261 143.592 
Q 182.462141 143.592 188.989022 143.592 
L 188.989022 143.592 
Q 193.18796 147.092 197.386898 150.592 
Q 193.18796 154.092 188.989022 157.592 
L 188.989022 157.592 
Q 182.462141 157.592 175.935261 157.592 
L 175.935261 143.592 
z
" clip-path="url(#pb49a5c8c8a)" style="fill: #1e90ff; stroke: #000000; stroke-linecap: round"/>
   </g>
   <g id="patch_10">
    <path d="M 283.193449 143.592 
Q 289.72033 143.592 296.247211 143.592 
L 296.247211 143.592 
Q 300.446149 147.092 304.645087 150.592 
Q 300.446149 154.092 296.247211 157.592 
L 296.247211 157.592 
Q 289.72033 157.592 283.193449 157.592 
L 283.193449 143.592 
z
" clip-path="url(#pb49a5c8c8a)" style="fill: #9370db; stroke: #000000; stroke-linecap: round"/>
   </g>
   <g id="patch_11">
    <path d="M 562.064739 143.592 
Q 568.59162 143.592 575.118501 143.592 
L 575.118501 143.592 
Q 579.317439 147.092 583.516377 150.592 
Q 579.317439 154.092 575.118501 157.592 
L 575.118501 157.592 
Q 568.59162 157.592 562.064739 157.592 
L 562.064739 143.592 
z
" clip-path="url(#pb49a5c8c8a)" style="stroke: #000000; stroke-linecap: round"/>
   </g>
   <g id="matplotlib.axis_1">
    <g id="xtick_1">
     <g id="line2d_10">
      <defs>
       <path id="m329a4e8383" d="M 0 0 
L 0 3.5 
" style="stroke: #808080; stroke-width: 0.8"/>
      </defs>
      <g>
       <use xlink:href="#m329a4e8383" x="90.343226" y="166.608" style="fill: #808080; stroke: #808080; stroke-width: 0.8"/>
      </g>
     </g>
     <g id="text_1">
      <!-- 0 -->
      <g style="fill: #808080" transform="translate(87.161976 181.206438) scale(0.1 -0.1)">
       <defs>
        <path id="DejaVuSans-30" d="M 2034 4250 
Q 1547 4250 1301 3770 
Q 1056 3291 1056 2328 
Q 1056 1369 1301 889 
Q 1547 409 2034 409 
Q 2525 409 2770 889 
Q 3016 1369 3016 2328 
Q 3016 3291 2770 3770 
Q 2525 4250 2034 4250 
z
M 2034 4750 
Q 2819 4750 3233 4129 
Q 3647 3509 3647 2328 
Q 3647 1150 3233 529 
Q 2819 -91 2034 -91 
Q 1250 -91 836 529 
Q 422 1150 422 2328 
Q 422 3509 836 4129 
Q 1250 4750 2034 4750 
z
" transform="scale(0.015625)"/>
       </defs>
       <use xlink:href="#DejaVuSans-30"/>
      </g>
     </g>
    </g>
    <g id="xtick_2">
     <g id="line2d_11">
      <g>
       <use xlink:href="#m329a4e8383" x="154.698139" y="166.608" style="fill: #808080; stroke: #808080; stroke-width: 0.8"/>
      </g>
     </g>
     <g id="text_2">
      <!-- 150 -->
      <g style="fill: #808080" transform="translate(145.154389 181.206438) scale(0.1 -0.1)">
       <defs>
        <path id="DejaVuSans-31" d="M 794 531 
L 1825 531 
L 1825 4091 
L 703 3866 
L 703 4441 
L 1819 4666 
L 2450 4666 
L 2450 531 
L 3481 531 
L 3481 0 
L 794 0 
L 794 531 
z
" transform="scale(0.015625)"/>
        <path id="DejaVuSans-35" d="M 691 4666 
L 3169 4666 
L 3169 4134 
L 1269 4134 
L 1269 2991 
Q 1406 3038 1543 3061 
Q 1681 3084 1819 3084 
Q 2600 3084 3056 2656 
Q 3513 2228 3513 1497 
Q 3513 744 3044 326 
Q 2575 -91 1722 -91 
Q 1428 -91 1123 -41 
Q 819 9 494 109 
L 494 744 
Q 775 591 1075 516 
Q 1375 441 1709 441 
Q 2250 441 2565 725 
Q 2881 1009 2881 1497 
Q 2881 1984 2565 2268 
Q 2250 2553 1709 2553 
Q 1456 2553 1204 2497 
Q 953 2441 691 2322 
L 691 4666 
z
" transform="scale(0.015625)"/>
       </defs>
       <use xlink:href="#DejaVuSans-31"/>
       <use xlink:href="#DejaVuSans-35" transform="translate(63.623047 0)"/>
       <use xlink:href="#DejaVuSans-30" transform="translate(127.246094 0)"/>
      </g>
     </g>
    </g>
    <g id="xtick_3">
     <g id="line2d_12">
      <g>
       <use xlink:href="#m329a4e8383" x="219.053052" y="166.608" style="fill: #808080; stroke: #808080; stroke-width: 0.8"/>
      </g>
     </g>
     <g id="text_3">
      <!-- 300 -->
      <g style="fill: #808080" transform="translate(209.509302 181.206438) scale(0.1 -0.1)">
       <defs>
        <path id="DejaVuSans-33" d="M 2597 2516 
Q 3050 2419 3304 2112 
Q 3559 1806 3559 1356 
Q 3559 666 3084 287 
Q 2609 -91 1734 -91 
Q 1441 -91 1130 -33 
Q 819 25 488 141 
L 488 750 
Q 750 597 1062 519 
Q 1375 441 1716 441 
Q 2309 441 2620 675 
Q 2931 909 2931 1356 
Q 2931 1769 2642 2001 
Q 2353 2234 1838 2234 
L 1294 2234 
L 1294 2753 
L 1863 2753 
Q 2328 2753 2575 2939 
Q 2822 3125 2822 3475 
Q 2822 3834 2567 4026 
Q 2313 4219 1838 4219 
Q 1578 4219 1281 4162 
Q 984 4106 628 3988 
L 628 4550 
Q 988 4650 1302 4700 
Q 1616 4750 1894 4750 
Q 2613 4750 3031 4423 
Q 3450 4097 3450 3541 
Q 3450 3153 3228 2886 
Q 3006 2619 2597 2516 
z
" transform="scale(0.015625)"/>
       </defs>
       <use xlink:href="#DejaVuSans-33"/>
       <use xlink:href="#DejaVuSans-30" transform="translate(63.623047 0)"/>
       <use xlink:href="#DejaVuSans-30" transform="translate(127.246094 0)"/>
      </g>
     </g>
    </g>
    <g id="xtick_4">
     <g id="line2d_13">
      <g>
       <use xlink:href="#m329a4e8383" x="283.407966" y="166.608" style="fill: #808080; stroke: #808080; stroke-width: 0.8"/>
      </g>
     </g>
     <g id="text_4">
      <!-- 450 -->
      <g style="fill: #808080" transform="translate(273.864216 181.206438) scale(0.1 -0.1)">
       <defs>
        <path id="DejaVuSans-34" d="M 2419 4116 
L 825 1625 
L 2419 1625 
L 2419 4116 
z
M 2253 4666 
L 3047 4666 
L 3047 1625 
L 3713 1625 
L 3713 1100 
L 3047 1100 
L 3047 0 
L 2419 0 
L 2419 1100 
L 313 1100 
L 313 1709 
L 2253 4666 
z
" transform="scale(0.015625)"/>
       </defs>
       <use xlink:href="#DejaVuSans-34"/>
       <use xlink:href="#DejaVuSans-35" transform="translate(63.623047 0)"/>
       <use xlink:href="#DejaVuSans-30" transform="translate(127.246094 0)"/>
      </g>
     </g>
    </g>
    <g id="xtick_5">
     <g id="line2d_14">
      <g>
       <use xlink:href="#m329a4e8383" x="347.762879" y="166.608" style="fill: #808080; stroke: #808080; stroke-width: 0.8"/>
      </g>
     </g>
     <g id="text_5">
      <!-- 600 -->
      <g style="fill: #808080" transform="translate(338.219129 181.206438) scale(0.1 -0.1)">
       <defs>
        <path id="DejaVuSans-36" d="M 2113 2584 
Q 1688 2584 1439 2293 
Q 1191 2003 1191 1497 
Q 1191 994 1439 701 
Q 1688 409 2113 409 
Q 2538 409 2786 701 
Q 3034 994 3034 1497 
Q 3034 2003 2786 2293 
Q 2538 2584 2113 2584 
z
M 3366 4563 
L 3366 3988 
Q 3128 4100 2886 4159 
Q 2644 4219 2406 4219 
Q 1781 4219 1451 3797 
Q 1122 3375 1075 2522 
Q 1259 2794 1537 2939 
Q 1816 3084 2150 3084 
Q 2853 3084 3261 2657 
Q 3669 2231 3669 1497 
Q 3669 778 3244 343 
Q 2819 -91 2113 -91 
Q 1303 -91 875 529 
Q 447 1150 447 2328 
Q 447 3434 972 4092 
Q 1497 4750 2381 4750 
Q 2619 4750 2861 4703 
Q 3103 4656 3366 4563 
z
" transform="scale(0.015625)"/>
       </defs>
       <use xlink:href="#DejaVuSans-36"/>
       <use xlink:href="#DejaVuSans-30" transform="translate(63.623047 0)"/>
       <use xlink:href="#DejaVuSans-30" transform="translate(127.246094 0)"/>
      </g>
     </g>
    </g>
    <g id="xtick_6">
     <g id="line2d_15">
      <g>
       <use xlink:href="#m329a4e8383" x="412.117792" y="166.608" style="fill: #808080; stroke: #808080; stroke-width: 0.8"/>
      </g>
     </g>
     <g id="text_6">
      <!-- 750 -->
      <g style="fill: #808080" transform="translate(402.574042 181.206438) scale(0.1 -0.1)">
       <defs>
        <path id="DejaVuSans-37" d="M 525 4666 
L 3525 4666 
L 3525 4397 
L 1831 0 
L 1172 0 
L 2766 4134 
L 525 4134 
L 525 4666 
z
" transform="scale(0.015625)"/>
       </defs>
       <use xlink:href="#DejaVuSans-37"/>
       <use xlink:href="#DejaVuSans-35" transform="translate(63.623047 0)"/>
       <use xlink:href="#DejaVuSans-30" transform="translate(127.246094 0)"/>
      </g>
     </g>
    </g>
    <g id="xtick_7">
     <g id="line2d_16">
      <g>
       <use xlink:href="#m329a4e8383" x="476.472705" y="166.608" style="fill: #808080; stroke: #808080; stroke-width: 0.8"/>
      </g>
     </g>
     <g id="text_7">
      <!-- 900 -->
      <g style="fill: #808080" transform="translate(466.928955 181.206438) scale(0.1 -0.1)">
       <defs>
        <path id="DejaVuSans-39" d="M 703 97 
L 703 672 
Q 941 559 1184 500 
Q 1428 441 1663 441 
Q 2288 441 2617 861 
Q 2947 1281 2994 2138 
Q 2813 1869 2534 1725 
Q 2256 1581 1919 1581 
Q 1219 1581 811 2004 
Q 403 2428 403 3163 
Q 403 3881 828 4315 
Q 1253 4750 1959 4750 
Q 2769 4750 3195 4129 
Q 3622 3509 3622 2328 
Q 3622 1225 3098 567 
Q 2575 -91 1691 -91 
Q 1453 -91 1209 -44 
Q 966 3 703 97 
z
M 1959 2075 
Q 2384 2075 2632 2365 
Q 2881 2656 2881 3163 
Q 2881 3666 2632 3958 
Q 2384 4250 1959 4250 
Q 1534 4250 1286 3958 
Q 1038 3666 1038 3163 
Q 1038 2656 1286 2365 
Q 1534 2075 1959 2075 
z
" transform="scale(0.015625)"/>
       </defs>
       <use xlink:href="#DejaVuSans-39"/>
       <use xlink:href="#DejaVuSans-30" transform="translate(63.623047 0)"/>
       <use xlink:href="#DejaVuSans-30" transform="translate(127.246094 0)"/>
      </g>
     </g>
    </g>
    <g id="xtick_8">
     <g id="line2d_17">
      <g>
       <use xlink:href="#m329a4e8383" x="540.827618" y="166.608" style="fill: #808080; stroke: #808080; stroke-width: 0.8"/>
      </g>
     </g>
     <g id="text_8">
      <!-- 1,050 -->
      <g style="fill: #808080" transform="translate(526.513556 181.206438) scale(0.1 -0.1)">
       <defs>
        <path id="DejaVuSans-2c" d="M 750 794 
L 1409 794 
L 1409 256 
L 897 -744 
L 494 -744 
L 750 256 
L 750 794 
z
" transform="scale(0.015625)"/>
       </defs>
       <use xlink:href="#DejaVuSans-31"/>
       <use xlink:href="#DejaVuSans-2c" transform="translate(63.623047 0)"/>
       <use xlink:href="#DejaVuSans-30" transform="translate(95.410156 0)"/>
       <use xlink:href="#DejaVuSans-35" transform="translate(159.033203 0)"/>
       <use xlink:href="#DejaVuSans-30" transform="translate(222.65625 0)"/>
      </g>
     </g>
    </g>
    <g id="xtick_9">
     <g id="line2d_18">
      <g>
       <use xlink:href="#m329a4e8383" x="605.182531" y="166.608" style="fill: #808080; stroke: #808080; stroke-width: 0.8"/>
      </g>
     </g>
     <g id="text_9">
      <!-- 1,200 -->
      <g style="fill: #808080" transform="translate(590.868469 181.206438) scale(0.1 -0.1)">
       <defs>
        <path id="DejaVuSans-32" d="M 1228 531 
L 3431 531 
L 3431 0 
L 469 0 
L 469 531 
Q 828 903 1448 1529 
Q 2069 2156 2228 2338 
Q 2531 2678 2651 2914 
Q 2772 3150 2772 3378 
Q 2772 3750 2511 3984 
Q 2250 4219 1831 4219 
Q 1534 4219 1204 4116 
Q 875 4013 500 3803 
L 500 4441 
Q 881 4594 1212 4672 
Q 1544 4750 1819 4750 
Q 2544 4750 2975 4387 
Q 3406 4025 3406 3419 
Q 3406 3131 3298 2873 
Q 3191 2616 2906 2266 
Q 2828 2175 2409 1742 
Q 1991 1309 1228 531 
z
" transform="scale(0.015625)"/>
       </defs>
       <use xlink:href="#DejaVuSans-31"/>
       <use xlink:href="#DejaVuSans-2c" transform="translate(63.623047 0)"/>
       <use xlink:href="#DejaVuSans-32" transform="translate(95.410156 0)"/>
       <use xlink:href="#DejaVuSans-30" transform="translate(159.033203 0)"/>
       <use xlink:href="#DejaVuSans-30" transform="translate(222.65625 0)"/>
      </g>
     </g>
    </g>
   </g>
   <g id="text_10">
    <g id="patch_12">
     <path d="M 194.804314 95.206828 
L 285.776033 95.206828 
Q 289.076033 95.206828 289.076033 91.906828 
L 289.076033 81.149172 
Q 289.076033 77.849172 285.776033 77.849172 
L 194.804314 77.849172 
Q 191.504314 77.849172 191.504314 81.149172 
L 191.504314 91.906828 
Q 191.504314 95.206828 194.804314 95.206828 
z
" style="fill: #ffece5; stroke: #808080; stroke-linejoin: miter"/>
    </g>
    <!-- Sensor_Protease -->
    <g transform="translate(194.804314 89.313234) scale(0.11 -0.11)">
     <defs>
      <path id="DejaVuSans-53" d="M 3425 4513 
L 3425 3897 
Q 3066 4069 2747 4153 
Q 2428 4238 2131 4238 
Q 1616 4238 1336 4038 
Q 1056 3838 1056 3469 
Q 1056 3159 1242 3001 
Q 1428 2844 1947 2747 
L 2328 2669 
Q 3034 2534 3370 2195 
Q 3706 1856 3706 1288 
Q 3706 609 3251 259 
Q 2797 -91 1919 -91 
Q 1588 -91 1214 -16 
Q 841 59 441 206 
L 441 856 
Q 825 641 1194 531 
Q 1563 422 1919 422 
Q 2459 422 2753 634 
Q 3047 847 3047 1241 
Q 3047 1584 2836 1778 
Q 2625 1972 2144 2069 
L 1759 2144 
Q 1053 2284 737 2584 
Q 422 2884 422 3419 
Q 422 4038 858 4394 
Q 1294 4750 2059 4750 
Q 2388 4750 2728 4690 
Q 3069 4631 3425 4513 
z
" transform="scale(0.015625)"/>
      <path id="DejaVuSans-65" d="M 3597 1894 
L 3597 1613 
L 953 1613 
Q 991 1019 1311 708 
Q 1631 397 2203 397 
Q 2534 397 2845 478 
Q 3156 559 3463 722 
L 3463 178 
Q 3153 47 2828 -22 
Q 2503 -91 2169 -91 
Q 1331 -91 842 396 
Q 353 884 353 1716 
Q 353 2575 817 3079 
Q 1281 3584 2069 3584 
Q 2775 3584 3186 3129 
Q 3597 2675 3597 1894 
z
M 3022 2063 
Q 3016 2534 2758 2815 
Q 2500 3097 2075 3097 
Q 1594 3097 1305 2825 
Q 1016 2553 972 2059 
L 3022 2063 
z
" transform="scale(0.015625)"/>
      <path id="DejaVuSans-6e" d="M 3513 2113 
L 3513 0 
L 2938 0 
L 2938 2094 
Q 2938 2591 2744 2837 
Q 2550 3084 2163 3084 
Q 1697 3084 1428 2787 
Q 1159 2491 1159 1978 
L 1159 0 
L 581 0 
L 581 3500 
L 1159 3500 
L 1159 2956 
Q 1366 3272 1645 3428 
Q 1925 3584 2291 3584 
Q 2894 3584 3203 3211 
Q 3513 2838 3513 2113 
z
" transform="scale(0.015625)"/>
      <path id="DejaVuSans-73" d="M 2834 3397 
L 2834 2853 
Q 2591 2978 2328 3040 
Q 2066 3103 1784 3103 
Q 1356 3103 1142 2972 
Q 928 2841 928 2578 
Q 928 2378 1081 2264 
Q 1234 2150 1697 2047 
L 1894 2003 
Q 2506 1872 2764 1633 
Q 3022 1394 3022 966 
Q 3022 478 2636 193 
Q 2250 -91 1575 -91 
Q 1294 -91 989 -36 
Q 684 19 347 128 
L 347 722 
Q 666 556 975 473 
Q 1284 391 1588 391 
Q 1994 391 2212 530 
Q 2431 669 2431 922 
Q 2431 1156 2273 1281 
Q 2116 1406 1581 1522 
L 1381 1569 
Q 847 1681 609 1914 
Q 372 2147 372 2553 
Q 372 3047 722 3315 
Q 1072 3584 1716 3584 
Q 2034 3584 2315 3537 
Q 2597 3491 2834 3397 
z
" transform="scale(0.015625)"/>
      <path id="DejaVuSans-6f" d="M 1959 3097 
Q 1497 3097 1228 2736 
Q 959 2375 959 1747 
Q 959 1119 1226 758 
Q 1494 397 1959 397 
Q 2419 397 2687 759 
Q 2956 1122 2956 1747 
Q 2956 2369 2687 2733 
Q 2419 3097 1959 3097 
z
M 1959 3584 
Q 2709 3584 3137 3096 
Q 3566 2609 3566 1747 
Q 3566 888 3137 398 
Q 2709 -91 1959 -91 
Q 1206 -91 779 398 
Q 353 888 353 1747 
Q 353 2609 779 3096 
Q 1206 3584 1959 3584 
z
" transform="scale(0.015625)"/>
      <path id="DejaVuSans-72" d="M 2631 2963 
Q 2534 3019 2420 3045 
Q 2306 3072 2169 3072 
Q 1681 3072 1420 2755 
Q 1159 2438 1159 1844 
L 1159 0 
L 581 0 
L 581 3500 
L 1159 3500 
L 1159 2956 
Q 1341 3275 1631 3429 
Q 1922 3584 2338 3584 
Q 2397 3584 2469 3576 
Q 2541 3569 2628 3553 
L 2631 2963 
z
" transform="scale(0.015625)"/>
      <path id="DejaVuSans-5f" d="M 3263 -1063 
L 3263 -1509 
L -63 -1509 
L -63 -1063 
L 3263 -1063 
z
" transform="scale(0.015625)"/>
      <path id="DejaVuSans-50" d="M 1259 4147 
L 1259 2394 
L 2053 2394 
Q 2494 2394 2734 2622 
Q 2975 2850 2975 3272 
Q 2975 3691 2734 3919 
Q 2494 4147 2053 4147 
L 1259 4147 
z
M 628 4666 
L 2053 4666 
Q 2838 4666 3239 4311 
Q 3641 3956 3641 3272 
Q 3641 2581 3239 2228 
Q 2838 1875 2053 1875 
L 1259 1875 
L 1259 0 
L 628 0 
L 628 4666 
z
" transform="scale(0.015625)"/>
      <path id="DejaVuSans-74" d="M 1172 4494 
L 1172 3500 
L 2356 3500 
L 2356 3053 
L 1172 3053 
L 1172 1153 
Q 1172 725 1289 603 
Q 1406 481 1766 481 
L 2356 481 
L 2356 0 
L 1766 0 
Q 1100 0 847 248 
Q 594 497 594 1153 
L 594 3053 
L 172 3053 
L 172 3500 
L 594 3500 
L 594 4494 
L 1172 4494 
z
" transform="scale(0.015625)"/>
      <path id="DejaVuSans-61" d="M 2194 1759 
Q 1497 1759 1228 1600 
Q 959 1441 959 1056 
Q 959 750 1161 570 
Q 1363 391 1709 391 
Q 2188 391 2477 730 
Q 2766 1069 2766 1631 
L 2766 1759 
L 2194 1759 
z
M 3341 1997 
L 3341 0 
L 2766 0 
L 2766 531 
Q 2569 213 2275 61 
Q 1981 -91 1556 -91 
Q 1019 -91 701 211 
Q 384 513 384 1019 
Q 384 1609 779 1909 
Q 1175 2209 1959 2209 
L 2766 2209 
L 2766 2266 
Q 2766 2663 2505 2880 
Q 2244 3097 1772 3097 
Q 1472 3097 1187 3025 
Q 903 2953 641 2809 
L 641 3341 
Q 956 3463 1253 3523 
Q 1550 3584 1831 3584 
Q 2591 3584 2966 3190 
Q 3341 2797 3341 1997 
z
" transform="scale(0.015625)"/>
     </defs>
     <use xlink:href="#DejaVuSans-53"/>
     <use xlink:href="#DejaVuSans-65" transform="translate(63.476562 0)"/>
     <use xlink:href="#DejaVuSans-6e" transform="translate(125 0)"/>
     <use xlink:href="#DejaVuSans-73" transform="translate(188.378906 0)"/>
     <use xlink:href="#DejaVuSans-6f" transform="translate(240.478516 0)"/>
     <use xlink:href="#DejaVuSans-72" transform="translate(301.660156 0)"/>
     <use xlink:href="#DejaVuSans-5f" transform="translate(342.773438 0)"/>
     <use xlink:href="#DejaVuSans-50" transform="translate(392.773438 0)"/>
     <use xlink:href="#DejaVuSans-72" transform="translate(451.326172 0)"/>
     <use xlink:href="#DejaVuSans-6f" transform="translate(490.189453 0)"/>
     <use xlink:href="#DejaVuSans-74" transform="translate(551.371094 0)"/>
     <use xlink:href="#DejaVuSans-65" transform="translate(590.580078 0)"/>
     <use xlink:href="#DejaVuSans-61" transform="translate(652.103516 0)"/>
     <use xlink:href="#DejaVuSans-73" transform="translate(713.382812 0)"/>
     <use xlink:href="#DejaVuSans-65" transform="translate(765.482422 0)"/>
    </g>
   </g>
   <g id="text_11">
    <g id="patch_13">
     <path d="M 286.06094 127.182969 
L 409.035784 127.182969 
Q 412.335784 127.182969 412.335784 123.882969 
L 412.335784 113.237031 
Q 412.335784 109.937031 409.035784 109.937031 
L 286.06094 109.937031 
Q 282.76094 109.937031 282.76094 113.237031 
L 282.76094 123.882969 
Q 282.76094 127.182969 286.06094 127.182969 
z
" style="fill: #ffe9e5; stroke: #808080; stroke-linejoin: miter"/>
    </g>
    <!-- Downstream_Protease -->
    <g transform="translate(286.06094 121.289375) scale(0.11 -0.11)">
     <defs>
      <path id="DejaVuSans-44" d="M 1259 4147 
L 1259 519 
L 2022 519 
Q 2988 519 3436 956 
Q 3884 1394 3884 2338 
Q 3884 3275 3436 3711 
Q 2988 4147 2022 4147 
L 1259 4147 
z
M 628 4666 
L 1925 4666 
Q 3281 4666 3915 4102 
Q 4550 3538 4550 2338 
Q 4550 1131 3912 565 
Q 3275 0 1925 0 
L 628 0 
L 628 4666 
z
" transform="scale(0.015625)"/>
      <path id="DejaVuSans-77" d="M 269 3500 
L 844 3500 
L 1563 769 
L 2278 3500 
L 2956 3500 
L 3675 769 
L 4391 3500 
L 4966 3500 
L 4050 0 
L 3372 0 
L 2619 2869 
L 1863 0 
L 1184 0 
L 269 3500 
z
" transform="scale(0.015625)"/>
      <path id="DejaVuSans-6d" d="M 3328 2828 
Q 3544 3216 3844 3400 
Q 4144 3584 4550 3584 
Q 5097 3584 5394 3201 
Q 5691 2819 5691 2113 
L 5691 0 
L 5113 0 
L 5113 2094 
Q 5113 2597 4934 2840 
Q 4756 3084 4391 3084 
Q 3944 3084 3684 2787 
Q 3425 2491 3425 1978 
L 3425 0 
L 2847 0 
L 2847 2094 
Q 2847 2600 2669 2842 
Q 2491 3084 2119 3084 
Q 1678 3084 1418 2786 
Q 1159 2488 1159 1978 
L 1159 0 
L 581 0 
L 581 3500 
L 1159 3500 
L 1159 2956 
Q 1356 3278 1631 3431 
Q 1906 3584 2284 3584 
Q 2666 3584 2933 3390 
Q 3200 3197 3328 2828 
z
" transform="scale(0.015625)"/>
     </defs>
     <use xlink:href="#DejaVuSans-44"/>
     <use xlink:href="#DejaVuSans-6f" transform="translate(77.001953 0)"/>
     <use xlink:href="#DejaVuSans-77" transform="translate(138.183594 0)"/>
     <use xlink:href="#DejaVuSans-6e" transform="translate(219.970703 0)"/>
     <use xlink:href="#DejaVuSans-73" transform="translate(283.349609 0)"/>
     <use xlink:href="#DejaVuSans-74" transform="translate(335.449219 0)"/>
     <use xlink:href="#DejaVuSans-72" transform="translate(374.658203 0)"/>
     <use xlink:href="#DejaVuSans-65" transform="translate(413.521484 0)"/>
     <use xlink:href="#DejaVuSans-61" transform="translate(475.044922 0)"/>
     <use xlink:href="#DejaVuSans-6d" transform="translate(536.324219 0)"/>
     <use xlink:href="#DejaVuSans-5f" transform="translate(633.736328 0)"/>
     <use xlink:href="#DejaVuSans-50" transform="translate(683.736328 0)"/>
     <use xlink:href="#DejaVuSans-72" transform="translate(742.289062 0)"/>
     <use xlink:href="#DejaVuSans-6f" transform="translate(781.152344 0)"/>
     <use xlink:href="#DejaVuSans-74" transform="translate(842.333984 0)"/>
     <use xlink:href="#DejaVuSans-65" transform="translate(881.542969 0)"/>
     <use xlink:href="#DejaVuSans-61" transform="translate(943.066406 0)"/>
     <use xlink:href="#DejaVuSans-73" transform="translate(1004.345703 0)"/>
     <use xlink:href="#DejaVuSans-65" transform="translate(1056.445312 0)"/>
    </g>
   </g>
   <g id="text_12">
    <g id="patch_14">
     <path d="M 396.227335 95.303938 
L 470.482491 95.303938 
Q 473.782491 95.303938 473.782491 92.003938 
L 473.782491 81.052063 
Q 473.782491 77.752063 470.482491 77.752063 
L 396.227335 77.752063 
Q 392.927335 77.752063 392.927335 81.052063 
L 392.927335 92.003938 
Q 392.927335 95.303938 396.227335 95.303938 
z
" style="fill: #edf3f8; stroke: #808080; stroke-linejoin: miter"/>
    </g>
    <!-- Logic_Module -->
    <g transform="translate(396.227335 89.410344) scale(0.11 -0.11)">
     <defs>
      <path id="DejaVuSans-4c" d="M 628 4666 
L 1259 4666 
L 1259 531 
L 3531 531 
L 3531 0 
L 628 0 
L 628 4666 
z
" transform="scale(0.015625)"/>
      <path id="DejaVuSans-67" d="M 2906 1791 
Q 2906 2416 2648 2759 
Q 2391 3103 1925 3103 
Q 1463 3103 1205 2759 
Q 947 2416 947 1791 
Q 947 1169 1205 825 
Q 1463 481 1925 481 
Q 2391 481 2648 825 
Q 2906 1169 2906 1791 
z
M 3481 434 
Q 3481 -459 3084 -895 
Q 2688 -1331 1869 -1331 
Q 1566 -1331 1297 -1286 
Q 1028 -1241 775 -1147 
L 775 -588 
Q 1028 -725 1275 -790 
Q 1522 -856 1778 -856 
Q 2344 -856 2625 -561 
Q 2906 -266 2906 331 
L 2906 616 
Q 2728 306 2450 153 
Q 2172 0 1784 0 
Q 1141 0 747 490 
Q 353 981 353 1791 
Q 353 2603 747 3093 
Q 1141 3584 1784 3584 
Q 2172 3584 2450 3431 
Q 2728 3278 2906 2969 
L 2906 3500 
L 3481 3500 
L 3481 434 
z
" transform="scale(0.015625)"/>
      <path id="DejaVuSans-69" d="M 603 3500 
L 1178 3500 
L 1178 0 
L 603 0 
L 603 3500 
z
M 603 4863 
L 1178 4863 
L 1178 4134 
L 603 4134 
L 603 4863 
z
" transform="scale(0.015625)"/>
      <path id="DejaVuSans-63" d="M 3122 3366 
L 3122 2828 
Q 2878 2963 2633 3030 
Q 2388 3097 2138 3097 
Q 1578 3097 1268 2742 
Q 959 2388 959 1747 
Q 959 1106 1268 751 
Q 1578 397 2138 397 
Q 2388 397 2633 464 
Q 2878 531 3122 666 
L 3122 134 
Q 2881 22 2623 -34 
Q 2366 -91 2075 -91 
Q 1284 -91 818 406 
Q 353 903 353 1747 
Q 353 2603 823 3093 
Q 1294 3584 2113 3584 
Q 2378 3584 2631 3529 
Q 2884 3475 3122 3366 
z
" transform="scale(0.015625)"/>
      <path id="DejaVuSans-4d" d="M 628 4666 
L 1569 4666 
L 2759 1491 
L 3956 4666 
L 4897 4666 
L 4897 0 
L 4281 0 
L 4281 4097 
L 3078 897 
L 2444 897 
L 1241 4097 
L 1241 0 
L 628 0 
L 628 4666 
z
" transform="scale(0.015625)"/>
      <path id="DejaVuSans-64" d="M 2906 2969 
L 2906 4863 
L 3481 4863 
L 3481 0 
L 2906 0 
L 2906 525 
Q 2725 213 2448 61 
Q 2172 -91 1784 -91 
Q 1150 -91 751 415 
Q 353 922 353 1747 
Q 353 2572 751 3078 
Q 1150 3584 1784 3584 
Q 2172 3584 2448 3432 
Q 2725 3281 2906 2969 
z
M 947 1747 
Q 947 1113 1208 752 
Q 1469 391 1925 391 
Q 2381 391 2643 752 
Q 2906 1113 2906 1747 
Q 2906 2381 2643 2742 
Q 2381 3103 1925 3103 
Q 1469 3103 1208 2742 
Q 947 2381 947 1747 
z
" transform="scale(0.015625)"/>
      <path id="DejaVuSans-75" d="M 544 1381 
L 544 3500 
L 1119 3500 
L 1119 1403 
Q 1119 906 1312 657 
Q 1506 409 1894 409 
Q 2359 409 2629 706 
Q 2900 1003 2900 1516 
L 2900 3500 
L 3475 3500 
L 3475 0 
L 2900 0 
L 2900 538 
Q 2691 219 2414 64 
Q 2138 -91 1772 -91 
Q 1169 -91 856 284 
Q 544 659 544 1381 
z
M 1991 3584 
L 1991 3584 
z
" transform="scale(0.015625)"/>
      <path id="DejaVuSans-6c" d="M 603 4863 
L 1178 4863 
L 1178 0 
L 603 0 
L 603 4863 
z
" transform="scale(0.015625)"/>
     </defs>
     <use xlink:href="#DejaVuSans-4c"/>
     <use xlink:href="#DejaVuSans-6f" transform="translate(53.962891 0)"/>
     <use xlink:href="#DejaVuSans-67" transform="translate(115.144531 0)"/>
     <use xlink:href="#DejaVuSans-69" transform="translate(178.621094 0)"/>
     <use xlink:href="#DejaVuSans-63" transform="translate(206.404297 0)"/>
     <use xlink:href="#DejaVuSans-5f" transform="translate(261.384766 0)"/>
     <use xlink:href="#DejaVuSans-4d" transform="translate(311.384766 0)"/>
     <use xlink:href="#DejaVuSans-6f" transform="translate(397.664062 0)"/>
     <use xlink:href="#DejaVuSans-64" transform="translate(458.845703 0)"/>
     <use xlink:href="#DejaVuSans-75" transform="translate(522.322266 0)"/>
     <use xlink:href="#DejaVuSans-6c" transform="translate(585.701172 0)"/>
     <use xlink:href="#DejaVuSans-65" transform="translate(613.484375 0)"/>
    </g>
   </g>
   <g id="text_13">
    <g id="patch_15">
     <path d="M 473.428964 127.238828 
L 564.893964 127.238828 
Q 568.193964 127.238828 568.193964 123.938828 
L 568.193964 113.181172 
Q 568.193964 109.881172 564.893964 109.881172 
L 473.428964 109.881172 
Q 470.128964 109.881172 470.128964 113.181172 
L 470.128964 123.938828 
Q 470.128964 127.238828 473.428964 127.238828 
z
" style="fill: #e5ffe5; stroke: #808080; stroke-linejoin: miter"/>
    </g>
    <!-- Output_Reporter -->
    <g transform="translate(473.428964 121.345234) scale(0.11 -0.11)">
     <defs>
      <path id="DejaVuSans-4f" d="M 2522 4238 
Q 1834 4238 1429 3725 
Q 1025 3213 1025 2328 
Q 1025 1447 1429 934 
Q 1834 422 2522 422 
Q 3209 422 3611 934 
Q 4013 1447 4013 2328 
Q 4013 3213 3611 3725 
Q 3209 4238 2522 4238 
z
M 2522 4750 
Q 3503 4750 4090 4092 
Q 4678 3434 4678 2328 
Q 4678 1225 4090 567 
Q 3503 -91 2522 -91 
Q 1538 -91 948 565 
Q 359 1222 359 2328 
Q 359 3434 948 4092 
Q 1538 4750 2522 4750 
z
" transform="scale(0.015625)"/>
      <path id="DejaVuSans-70" d="M 1159 525 
L 1159 -1331 
L 581 -1331 
L 581 3500 
L 1159 3500 
L 1159 2969 
Q 1341 3281 1617 3432 
Q 1894 3584 2278 3584 
Q 2916 3584 3314 3078 
Q 3713 2572 3713 1747 
Q 3713 922 3314 415 
Q 2916 -91 2278 -91 
Q 1894 -91 1617 61 
Q 1341 213 1159 525 
z
M 3116 1747 
Q 3116 2381 2855 2742 
Q 2594 3103 2138 3103 
Q 1681 3103 1420 2742 
Q 1159 2381 1159 1747 
Q 1159 1113 1420 752 
Q 1681 391 2138 391 
Q 2594 391 2855 752 
Q 3116 1113 3116 1747 
z
" transform="scale(0.015625)"/>
      <path id="DejaVuSans-52" d="M 2841 2188 
Q 3044 2119 3236 1894 
Q 3428 1669 3622 1275 
L 4263 0 
L 3584 0 
L 2988 1197 
Q 2756 1666 2539 1819 
Q 2322 1972 1947 1972 
L 1259 1972 
L 1259 0 
L 628 0 
L 628 4666 
L 2053 4666 
Q 2853 4666 3247 4331 
Q 3641 3997 3641 3322 
Q 3641 2881 3436 2590 
Q 3231 2300 2841 2188 
z
M 1259 4147 
L 1259 2491 
L 2053 2491 
Q 2509 2491 2742 2702 
Q 2975 2913 2975 3322 
Q 2975 3731 2742 3939 
Q 2509 4147 2053 4147 
L 1259 4147 
z
" transform="scale(0.015625)"/>
     </defs>
     <use xlink:href="#DejaVuSans-4f"/>
     <use xlink:href="#DejaVuSans-75" transform="translate(78.710938 0)"/>
     <use xlink:href="#DejaVuSans-74" transform="translate(142.089844 0)"/>
     <use xlink:href="#DejaVuSans-70" transform="translate(181.298828 0)"/>
     <use xlink:href="#DejaVuSans-75" transform="translate(244.775391 0)"/>
     <use xlink:href="#DejaVuSans-74" transform="translate(308.154297 0)"/>
     <use xlink:href="#DejaVuSans-5f" transform="translate(347.363281 0)"/>
     <use xlink:href="#DejaVuSans-52" transform="translate(397.363281 0)"/>
     <use xlink:href="#DejaVuSans-65" transform="translate(462.345703 0)"/>
     <use xlink:href="#DejaVuSans-70" transform="translate(523.869141 0)"/>
     <use xlink:href="#DejaVuSans-6f" transform="translate(587.345703 0)"/>
     <use xlink:href="#DejaVuSans-72" transform="translate(648.527344 0)"/>
     <use xlink:href="#DejaVuSans-74" transform="translate(689.640625 0)"/>
     <use xlink:href="#DejaVuSans-65" transform="translate(728.849609 0)"/>
     <use xlink:href="#DejaVuSans-72" transform="translate(790.373047 0)"/>
    </g>
   </g>
   <g id="text_14">
    <!-- ITR_5 -->
    <g transform="translate(96.527535 153.321375) scale(0.11 -0.11)">
     <defs>
      <path id="DejaVuSans-49" d="M 628 4666 
L 1259 4666 
L 1259 0 
L 628 0 
L 628 4666 
z
" transform="scale(0.015625)"/>
      <path id="DejaVuSans-54" d="M -19 4666 
L 3928 4666 
L 3928 4134 
L 2272 4134 
L 2272 0 
L 1638 0 
L 1638 4134 
L -19 4134 
L -19 4666 
z
" transform="scale(0.015625)"/>
     </defs>
     <use xlink:href="#DejaVuSans-49"/>
     <use xlink:href="#DejaVuSans-54" transform="translate(29.492188 0)"/>
     <use xlink:href="#DejaVuSans-52" transform="translate(90.576172 0)"/>
     <use xlink:href="#DejaVuSans-5f" transform="translate(160.058594 0)"/>
     <use xlink:href="#DejaVuSans-35" transform="translate(210.058594 0)"/>
    </g>
   </g>
   <g id="text_15">
    <g id="patch_16">
     <path d="M 69.927998 127.329922 
L 239.039248 127.329922 
Q 242.339248 127.329922 242.339248 124.029922 
L 242.339248 113.090078 
Q 242.339248 109.790078 239.039248 109.790078 
L 69.927998 109.790078 
Q 66.627998 109.790078 66.627998 113.090078 
L 66.627998 124.029922 
Q 66.627998 127.329922 69.927998 127.329922 
z
" style="fill: #eafaea; stroke: #808080; stroke-linejoin: miter"/>
    </g>
    <!-- ALDH3A1_promoter (EP73307) -->
    <g transform="translate(69.927998 121.436328) scale(0.11 -0.11)">
     <defs>
      <path id="DejaVuSans-41" d="M 2188 4044 
L 1331 1722 
L 3047 1722 
L 2188 4044 
z
M 1831 4666 
L 2547 4666 
L 4325 0 
L 3669 0 
L 3244 1197 
L 1141 1197 
L 716 0 
L 50 0 
L 1831 4666 
z
" transform="scale(0.015625)"/>
      <path id="DejaVuSans-48" d="M 628 4666 
L 1259 4666 
L 1259 2753 
L 3553 2753 
L 3553 4666 
L 4184 4666 
L 4184 0 
L 3553 0 
L 3553 2222 
L 1259 2222 
L 1259 0 
L 628 0 
L 628 4666 
z
" transform="scale(0.015625)"/>
      <path id="DejaVuSans-20" transform="scale(0.015625)"/>
      <path id="DejaVuSans-28" d="M 1984 4856 
Q 1566 4138 1362 3434 
Q 1159 2731 1159 2009 
Q 1159 1288 1364 580 
Q 1569 -128 1984 -844 
L 1484 -844 
Q 1016 -109 783 600 
Q 550 1309 550 2009 
Q 550 2706 781 3412 
Q 1013 4119 1484 4856 
L 1984 4856 
z
" transform="scale(0.015625)"/>
      <path id="DejaVuSans-45" d="M 628 4666 
L 3578 4666 
L 3578 4134 
L 1259 4134 
L 1259 2753 
L 3481 2753 
L 3481 2222 
L 1259 2222 
L 1259 531 
L 3634 531 
L 3634 0 
L 628 0 
L 628 4666 
z
" transform="scale(0.015625)"/>
      <path id="DejaVuSans-29" d="M 513 4856 
L 1013 4856 
Q 1481 4119 1714 3412 
Q 1947 2706 1947 2009 
Q 1947 1309 1714 600 
Q 1481 -109 1013 -844 
L 513 -844 
Q 928 -128 1133 580 
Q 1338 1288 1338 2009 
Q 1338 2731 1133 3434 
Q 928 4138 513 4856 
z
" transform="scale(0.015625)"/>
     </defs>
     <use xlink:href="#DejaVuSans-41"/>
     <use xlink:href="#DejaVuSans-4c" transform="translate(68.408203 0)"/>
     <use xlink:href="#DejaVuSans-44" transform="translate(124.121094 0)"/>
     <use xlink:href="#DejaVuSans-48" transform="translate(201.123047 0)"/>
     <use xlink:href="#DejaVuSans-33" transform="translate(276.318359 0)"/>
     <use xlink:href="#DejaVuSans-41" transform="translate(339.941406 0)"/>
     <use xlink:href="#DejaVuSans-31" transform="translate(408.349609 0)"/>
     <use xlink:href="#DejaVuSans-5f" transform="translate(471.972656 0)"/>
     <use xlink:href="#DejaVuSans-70" transform="translate(521.972656 0)"/>
     <use xlink:href="#DejaVuSans-72" transform="translate(585.449219 0)"/>
     <use xlink:href="#DejaVuSans-6f" transform="translate(624.3125 0)"/>
     <use xlink:href="#DejaVuSans-6d" transform="translate(685.494141 0)"/>
     <use xlink:href="#DejaVuSans-6f" transform="translate(782.90625 0)"/>
     <use xlink:href="#DejaVuSans-74" transform="translate(844.087891 0)"/>
     <use xlink:href="#DejaVuSans-65" transform="translate(883.296875 0)"/>
     <use xlink:href="#DejaVuSans-72" transform="translate(944.820312 0)"/>
     <use xlink:href="#DejaVuSans-20" transform="translate(985.933594 0)"/>
     <use xlink:href="#DejaVuSans-28" transform="translate(1017.720703 0)"/>
     <use xlink:href="#DejaVuSans-45" transform="translate(1056.734375 0)"/>
     <use xlink:href="#DejaVuSans-50" transform="translate(1119.917969 0)"/>
     <use xlink:href="#DejaVuSans-37" transform="translate(1180.220703 0)"/>
     <use xlink:href="#DejaVuSans-33" transform="translate(1243.84375 0)"/>
     <use xlink:href="#DejaVuSans-33" transform="translate(1307.466797 0)"/>
     <use xlink:href="#DejaVuSans-30" transform="translate(1371.089844 0)"/>
     <use xlink:href="#DejaVuSans-37" transform="translate(1434.712891 0)"/>
     <use xlink:href="#DejaVuSans-29" transform="translate(1498.335938 0)"/>
    </g>
   </g>
   <g id="text_16">
    <!-- ITR_3 -->
    <g transform="translate(589.915202 153.377234) scale(0.11 -0.11)">
     <use xlink:href="#DejaVuSans-49"/>
     <use xlink:href="#DejaVuSans-54" transform="translate(29.492188 0)"/>
     <use xlink:href="#DejaVuSans-52" transform="translate(90.576172 0)"/>
     <use xlink:href="#DejaVuSans-5f" transform="translate(160.058594 0)"/>
     <use xlink:href="#DejaVuSans-33" transform="translate(210.058594 0)"/>
    </g>
   </g>
   <g id="text_17">
    <g id="patch_17">
     <path d="M 170.522017 63.118969 
L 202.800142 63.118969 
Q 206.100142 63.118969 206.100142 59.818969 
L 206.100142 49.173031 
Q 206.100142 45.873031 202.800142 45.873031 
L 170.522017 45.873031 
Q 167.222017 45.873031 167.222017 49.173031 
L 167.222017 59.818969 
Q 167.222017 63.118969 170.522017 63.118969 
z
" style="fill: #e5f2ff; stroke: #808080; stroke-linejoin: miter"/>
    </g>
    <!-- Kozak -->
    <g transform="translate(170.522017 57.531313) scale(0.11 -0.11)">
     <defs>
      <path id="DejaVuSans-4b" d="M 628 4666 
L 1259 4666 
L 1259 2694 
L 3353 4666 
L 4166 4666 
L 1850 2491 
L 4331 0 
L 3500 0 
L 1259 2247 
L 1259 0 
L 628 0 
L 628 4666 
z
" transform="scale(0.015625)"/>
      <path id="DejaVuSans-7a" d="M 353 3500 
L 3084 3500 
L 3084 2975 
L 922 459 
L 3084 459 
L 3084 0 
L 275 0 
L 275 525 
L 2438 3041 
L 353 3041 
L 353 3500 
z
" transform="scale(0.015625)"/>
      <path id="DejaVuSans-6b" d="M 581 4863 
L 1159 4863 
L 1159 1991 
L 2875 3500 
L 3609 3500 
L 1753 1863 
L 3688 0 
L 2938 0 
L 1159 1709 
L 1159 0 
L 581 0 
L 581 4863 
z
" transform="scale(0.015625)"/>
     </defs>
     <use xlink:href="#DejaVuSans-4b"/>
     <use xlink:href="#DejaVuSans-6f" transform="translate(60.576172 0)"/>
     <use xlink:href="#DejaVuSans-7a" transform="translate(121.757812 0)"/>
     <use xlink:href="#DejaVuSans-61" transform="translate(174.248047 0)"/>
     <use xlink:href="#DejaVuSans-6b" transform="translate(235.527344 0)"/>
    </g>
   </g>
   <g id="text_18">
    <g id="patch_18">
     <path d="M 277.21044 63.118969 
L 310.628096 63.118969 
Q 313.928096 63.118969 313.928096 59.818969 
L 313.928096 49.173031 
Q 313.928096 45.873031 310.628096 45.873031 
L 277.21044 45.873031 
Q 273.91044 45.873031 273.91044 49.173031 
L 273.91044 59.818969 
Q 273.91044 63.118969 277.21044 63.118969 
z
" style="fill: #f0ebfa; stroke: #808080; stroke-linejoin: miter"/>
    </g>
    <!-- Linker -->
    <g transform="translate(277.21044 57.531313) scale(0.11 -0.11)">
     <use xlink:href="#DejaVuSans-4c"/>
     <use xlink:href="#DejaVuSans-69" transform="translate(55.712891 0)"/>
     <use xlink:href="#DejaVuSans-6e" transform="translate(83.496094 0)"/>
     <use xlink:href="#DejaVuSans-6b" transform="translate(146.875 0)"/>
     <use xlink:href="#DejaVuSans-65" transform="translate(201.160156 0)"/>
     <use xlink:href="#DejaVuSans-72" transform="translate(262.683594 0)"/>
    </g>
   </g>
   <g id="text_19">
    <g id="patch_19">
     <path d="M 543.405089 95.150969 
L 602.176027 95.150969 
Q 605.476027 95.150969 605.476027 91.850969 
L 605.476027 81.205031 
Q 605.476027 77.905031 602.176027 77.905031 
L 543.405089 77.905031 
Q 540.105089 77.905031 540.105089 81.205031 
L 540.105089 91.850969 
Q 540.105089 95.150969 543.405089 95.150969 
z
" style="fill: #f2f2f2; stroke: #808080; stroke-linejoin: miter"/>
    </g>
    <!-- Stop/PolyA -->
    <g transform="translate(543.405089 89.563313) scale(0.11 -0.11)">
     <defs>
      <path id="DejaVuSans-2f" d="M 1625 4666 
L 2156 4666 
L 531 -594 
L 0 -594 
L 1625 4666 
z
" transform="scale(0.015625)"/>
      <path id="DejaVuSans-79" d="M 2059 -325 
Q 1816 -950 1584 -1140 
Q 1353 -1331 966 -1331 
L 506 -1331 
L 506 -850 
L 844 -850 
Q 1081 -850 1212 -737 
Q 1344 -625 1503 -206 
L 1606 56 
L 191 3500 
L 800 3500 
L 1894 763 
L 2988 3500 
L 3597 3500 
L 2059 -325 
z
" transform="scale(0.015625)"/>
     </defs>
     <use xlink:href="#DejaVuSans-53"/>
     <use xlink:href="#DejaVuSans-74" transform="translate(63.476562 0)"/>
     <use xlink:href="#DejaVuSans-6f" transform="translate(102.685547 0)"/>
     <use xlink:href="#DejaVuSans-70" transform="translate(163.867188 0)"/>
     <use xlink:href="#DejaVuSans-2f" transform="translate(227.34375 0)"/>
     <use xlink:href="#DejaVuSans-50" transform="translate(261.035156 0)"/>
     <use xlink:href="#DejaVuSans-6f" transform="translate(317.712891 0)"/>
     <use xlink:href="#DejaVuSans-6c" transform="translate(378.894531 0)"/>
     <use xlink:href="#DejaVuSans-79" transform="translate(406.677734 0)"/>
     <use xlink:href="#DejaVuSans-41" transform="translate(465.857422 0)"/>
    </g>
   </g>
  </g>
 </g>
 <defs>
  <clipPath id="pb49a5c8c8a">
   <rect x="90" y="22.464" width="558" height="144.144"/>
  </clipPath>
 </defs>
</svg>
